<?xml version="1.0" encoding="UTF-8" standalone="no"?>
<svg
   xmlns:dc="http://purl.org/dc/elements/1.1/"
   xmlns:cc="http://creativecommons.org/ns#"
   xmlns:rdf="http://www.w3.org/1999/02/22-rdf-syntax-ns#"
   xmlns:svg="http://www.w3.org/2000/svg"
   xmlns="http://www.w3.org/2000/svg"
   width="1000"
   height="1000"
   viewBox="0 0 1000 1000"
   version="1.1"
   id="svg8">
  <defs
     id="defs2" />
  <metadata
     id="metadata5">
    <rdf:RDF>
      <cc:Work
         rdf:about="">
        <dc:format>image/svg+xml</dc:format>
        <dc:type
           rdf:resource="http://purl.org/dc/dcmitype/StillImage" />
        <dc:title></dc:title>
        <cc:license
           rdf:resource="https://freesvgfiles.org" />
        <dc:creator>
          <cc:Agent>
            <dc:title>https://freesvgfiles.org</dc:title>
          </cc:Agent>
        </dc:creator>
      </cc:Work>
    </rdf:RDF>
  </metadata>
  <g
     id="layer1"
     transform="translate(0,-122.51965)" />
  <g
     transform="matrix(1.0188346,0,0,1.0188346,-13.843046,-9.4173004)"
     id="g33">
    <!-- <path
       id="path2952"
       d="m 693.7404,176.65106 c -18.72774,-0.19427 -35.94513,8.78829 -48.83779,21.54714 -12.89264,12.75882 -21.90096,29.56697 -23.09766,47.35073 -3.61431,53.71167 15.57586,100.3942 33.34115,198.89503 -0.95005,-0.0496 -1.90793,-0.19551 -2.85413,-0.21167 -28.03584,-0.47902 -57.32231,12.80834 -68.91022,40.85044 -4.95278,11.98546 -4.54428,24.3002 -1.48175,35.24449 -5.03338,-0.92148 -10.48246,-1.26705 -16.21635,-0.22048 -8.70612,1.58901 -17.74744,6.79543 -24.07138,15.91646 -0.0195,0.0274 -0.03,0.0572 -0.0494,0.0845 -9.2e-4,10e-4 -0.003,0.004 -0.004,0.005 -3.41971,4.85754 -5.71938,10.07868 -7.37523,15.20911 -14.74235,40.53642 -5.46028,76.30801 20.76391,96.80065 12.75689,9.96874 20.70064,13.41357 24.6288,17.89919 3.92819,4.48562 7.35208,12.47156 10.13589,35.78603 4.87112,40.79561 31.84931,69.81432 63.37128,87.91192 31.52199,18.09759 67.87096,26.25545 96.22382,26.63622 21.03805,0.28254 26.5126,0.89536 34.66408,1.98449 8.1516,1.08914 18.95654,2.6937 47.99116,4.68691 28.64229,1.96629 57.62395,-4.87351 81.69209,-23.835 24.06815,-18.9615 42.78522,-49.59537 52.74672,-93.42615 a 10.560398,10.560398 0 0 0 0,-10e-4 c 0.0772,-0.34136 0.1214,-0.5476 0.15699,-0.70914 5.04262,-19.09763 6.25093,-37.35596 4.98689,-54.22147 -2.97186,-57.06618 -33.37674,-95.65895 -57.63304,-128.73591 -4.24955,-5.7947 -5.74521,-23.16762 -1.33357,-46.35231 4.41151,-23.18469 13.37095,-51.62835 23.42572,-80.47493 10.05476,-28.84659 21.18609,-58.14259 29.93488,-83.7048 8.74893,-25.56222 15.35826,-46.68185 15.6343,-62.82799 0.5438,-31.81412 -18.59815,-54.24839 -43.73114,-59.38115 -25.13284,-5.13279 -54.8197,4.61812 -79.83639,27.98038 -15.253,14.24437 -26.42378,38.78363 -36.95378,68.40221 -10.52987,29.61857 -19.68713,64.23346 -27.28886,97.34041 -2.99973,13.06466 -5.54877,25.46033 -8.04029,37.64528 -1.12181,-14.84801 -2.40682,-30.44399 -4.06428,-46.60457 -3.66285,-35.71596 -8.73307,-72.98081 -15.84411,-104.73155 -7.11092,-31.75074 -15.25773,-57.81875 -29.74609,-73.12085 -12.47648,-13.17723 -27.67254,-19.46529 -42.32868,-19.61732 z m -0.16405,15.90589 c 10.48149,0.10868 21.01425,4.16269 30.94213,14.64816 9.65707,10.19948 18.89206,34.93277 25.77363,65.65919 6.88154,30.72645 11.91755,67.53169 15.54246,102.87759 7.24983,70.69179 8.88523,135.51314 8.88523,135.51314 a 5.3478304,5.3478304 0 0 0 10.63512,0.65092 c 0,0 8.87612,-59.77911 23.91268,-125.26613 7.51814,-32.74352 16.58145,-66.90229 26.77376,-95.57115 10.1923,-28.66886 21.88301,-51.88865 32.82259,-62.10475 21.99228,-20.53802 47.16388,-27.82729 65.79666,-24.02201 18.63291,3.80531 31.4544,17.4793 31.00924,43.52467 -0.19478,11.39711 -6.16554,32.77773 -14.78052,57.9488 -8.61499,25.17106 -19.75169,54.49145 -29.90482,83.62012 -10.15312,29.12867 -19.33191,58.04114 -24.0309,82.73636 -4.69899,24.69523 -5.60698,45.45432 4.13134,58.73377 24.50971,33.42235 51.92922,68.3701 54.58835,120.28637 a 5.3478304,5.3478304 0 0 0 0.0138,0.1305 c 1.16237,15.37336 0.0676,31.91203 -4.56877,49.34053 a 5.3478304,5.3478304 0 0 0 -0.051,0.20639 c -0.0717,0.31928 -0.12416,0.57284 -0.16926,0.77086 -9.36778,41.21828 -26.38461,68.15293 -47.08084,84.458 -20.69637,16.30511 -45.29301,22.20863 -70.7572,20.46052 -28.73087,-1.97235 -38.61196,-3.46723 -46.97503,-4.5846 -8.36295,-1.11739 -15.2199,-1.8373 -36.55686,-2.12385 -25.37681,-0.34077 -59.86314,-8.07393 -88.51668,-24.5247 -28.65355,-16.45075 -51.3319,-41.12176 -55.49685,-76.0032 -2.91397,-24.40453 -6.88531,-36.2955 -13.96373,-44.37844 -7.07843,-8.08292 -15.485,-11.11377 -26.80029,-19.956 -21.02171,-16.42723 -28.79786,-42.90575 -15.51428,-79.12548 a 5.3478304,5.3478304 0 0 0 0.0705,-0.20462 c 1.31646,-4.09156 3.03958,-7.87757 5.32019,-11.09019 a 5.3478304,5.3478304 0 0 0 0.0829,-0.12167 5.3478304,5.3478304 0 0 0 0.005,-0.007 l 0.007,-0.007 -0.0512,0.0741 c 4.13806,-5.98314 8.75104,-8.41735 13.87553,-9.35267 5.1245,-0.9353 10.86825,-0.0879 16.11052,1.55231 a 5.3478304,5.3478304 0 0 0 0.61562,0.15347 c 4.5416,0.84748 9.16112,2.19126 13.82967,3.92841 a 5.3478304,5.3478304 0 0 0 6.34507,-7.93089 c -1.81927,-2.79224 -3.457,-5.61003 -4.85625,-8.48655 -5.02402,-10.32813 -7.09677,-22.69143 -2.50134,-33.81214 8.61878,-20.85697 31.01961,-31.41309 53.93748,-31.02151 4.91365,0.0839 9.9124,0.72751 14.83691,1.97567 a 5.3478304,5.3478304 0 0 0 6.58673,-6.07518 c -18.63391,-110.05922 -39.24406,-157.8418 -35.77332,-209.42009 0.86882,-12.9111 7.94923,-26.75612 18.41428,-37.11255 10.46506,-10.35643 24.09198,-17.08734 37.48475,-16.94841 z m 1.76752,14.3324 c -1.01687,-0.0144 -2.03974,0.0225 -3.07287,0.10063 -9.09137,0.68757 -19.50074,6.10672 -27.53233,14.51235 -8.03158,8.40561 -13.16391,19.40661 -13.75735,28.22556 -3.2807,48.75399 17.54705,97.18922 36.54809,212.06143 a 17.400294,17.400294 0 0 1 0.0776,5.0309 c 1.27078,0.77256 2.52922,1.5829 3.76259,2.45548 18.03202,12.75731 52.53058,33.75001 70.24737,68.83614 a 16.133799,16.133799 0 0 1 0.36514,0.82378 c 2.08098,-0.8029 4.22597,-1.61228 6.50725,-2.44489 0.0138,-0.004 0.0221,-0.01 0.0359,-0.014 0.41867,-0.16716 6.9822,-2.77629 16.60091,-6.09635 a 17.400294,17.400294 0 0 1 -21.17313,-16.51974 c 0,0 -1.63291,-64.456 -8.82522,-134.58705 -3.59616,-35.0655 -8.60541,-71.52126 -15.31318,-101.4717 -6.70779,-29.9504 -16.76928,-53.67554 -22.76603,-60.0091 -7.77463,-8.21131 -14.58609,-10.80255 -21.70413,-10.90323 z m 231.20956,11.47123 c -13.47897,-0.0963 -31.5605,6.18936 -48.18335,21.71294 -7.67153,7.16418 -19.75678,29.38558 -29.69332,57.33493 -9.93641,27.94934 -18.92897,61.76235 -26.38392,94.23051 -14.91006,64.93634 -23.73803,124.33828 -23.73803,124.33828 a 17.400294,17.400294 0 0 1 -9.91185,13.2105 c 2.71472,-0.91311 5.55938,-1.85205 8.60118,-2.8065 16.32102,-5.12111 35.82053,-10.53321 52.83156,-10.59805 2.27438,-0.01 4.51994,0.0901 6.75252,0.33692 9.54615,1.05549 18.85046,3.70752 27.71748,7.82858 -4.08801,-15.28284 -1.68519,-32.55518 1.84866,-51.12744 4.91682,-25.83967 14.26363,-55.10681 24.49125,-84.44919 10.22761,-29.34237 21.36846,-58.68191 29.88205,-83.55662 8.51344,-24.87472 13.99972,-46.45411 14.13298,-54.25325 0.37053,-21.6748 -7.66257,-28.71058 -21.37067,-31.51012 -2.14195,-0.43743 -4.48048,-0.6737 -6.97654,-0.69149 z m -275.2246,254.85933 c -18.45399,0.27606 -35.92907,9.67052 -41.99881,24.35892 -12.91607,31.2562 45.24756,72.29124 84.47388,103.86365 39.22632,31.57239 46.58703,25.51501 52.14174,22.00577 1.16938,-0.73876 2.1931,-1.58518 3.09406,-2.60365 -7.85948,-5.33542 -13.57569,-11.28575 -17.54641,-17.37882 -4.76234,-7.30779 -6.8851,-14.52447 -7.66984,-20.23472 -0.78472,-5.71026 -0.46581,-9.29668 0.1323,-12.24737 1.79216,-8.84127 8.12279,-16.21695 15.64129,-21.20491 2.35202,-1.56038 4.89502,-3.00306 7.61867,-4.39586 -14.92561,-29.5586 -46.45484,-49.70131 -65.16352,-62.93736 -8.73402,-6.17916 -18.92821,-9.05292 -28.9347,-9.22388 -0.59697,-0.01 -1.1934,-0.0111 -1.78868,-10e-4 z m 198.79971,56.21127 c -27.56063,0.10509 -76.92578,19.86603 -76.92578,19.86603 -23.59949,8.61085 -33.93947,14.87041 -35.87066,24.39774 -0.65407,3.22667 -4.7209,39.2279 60.88584,51.18741 65.60684,11.95953 82.80796,4.85314 93.19505,-0.36337 10.12719,-5.086 13.3239,-2.72082 11.81694,0.93139 -9.43096,22.85713 -71.80314,16.05582 -71.80314,16.05582 0,0 -5.83212,-0.83705 -31.31962,30.25769 -25.48752,31.09474 -14.15976,99.5023 -3.30392,110.50506 10.85572,11.00276 55.22265,12.43816 71.27038,9.56789 16.04773,-2.87028 43.42351,-9.08867 69.38295,-70.32142 25.95958,-61.23273 3.30418,-112.89889 -14.15947,-142.55851 -17.46365,-29.65959 -42.00869,-46.40143 -67.96826,-49.27172 -1.62244,-0.17943 -3.36295,-0.26125 -5.20031,-0.25401 z M 576.3699,547.39211 c -7.32032,-0.095 -12.9158,2.40262 -15.75418,8.56416 -11.31113,31.54597 -11.17281,60.78603 16.86196,79.17134 40.96859,26.86735 92.32638,57.40283 126.76904,53.57587 34.44262,-3.82697 -4.30597,-68.40565 -19.61378,-81.32164 -12.43765,-10.49425 -76.54165,-59.57863 -108.26304,-59.98973 z m 186.78692,81.23168 a 16.133799,16.133799 0 0 1 -2.03379,2.90881 c -1.98042,2.23881 -4.28322,4.11506 -6.56205,5.55479 -1.95633,1.23547 -14.55511,7.22675 -26.23581,4.09599 -1.66368,-0.44591 -3.35019,-0.99614 -5.06971,-1.63698 0.99319,2.20734 1.9524,4.43922 2.8559,6.69786 4.12046,10.30077 7.24092,20.66635 5.62889,31.93878 -0.80604,5.63621 -3.23893,11.80634 -8.02086,16.48095 -4.78193,4.67458 -11.32505,7.23824 -17.92388,7.97146 -22.04803,2.44978 -45.13405,-5.51419 -68.47099,-16.53387 -7.81731,-3.69132 -15.65118,-7.79667 -23.39402,-12.12742 2.03429,7.41943 3.55514,16.19045 4.82451,26.82146 3.62994,30.40074 23.0507,51.77732 49.53104,66.9804 26.48037,15.20307 59.55383,22.61605 82.67638,22.92657 1.76406,0.0237 3.30245,0.056 4.8916,0.0865 10.06524,-0.56926 19.14871,-2.72947 25.02923,-7.62043 -2.21547,-4.47304 -3.46736,-9.33379 -4.93929,-15.00978 -2.46889,-9.52083 -4.20831,-20.87094 -4.75211,-32.99718 -1.08773,-24.25243 1.87682,-51.94118 18.35964,-72.05012 8.68561,-10.59642 15.10732,-17.5351 20.26997,-22.5226 -4.5856,-0.7209 -8.93545,-1.34636 -14.05201,-2.27908 -12.88012,-2.34793 -23.65251,-5.68524 -32.61264,-9.68605 z"
       style="fill:#1a1a1a;fill-opacity:1;stroke:none;stroke-width:0.90316218px;stroke-linecap:butt;stroke-linejoin:miter;stroke-opacity:1" />
     -->
    
    <!-- WHITE HAND -->
    <g
       id="g27"
       transform="matrix(1.3795006,0,0,1.3795006,-239.71525,-309.10787)">
      <path
         style="fill:#ffffff;fill-opacity:1;stroke:none;stroke-width:0.6734094px;stroke-linecap:butt;stroke-linejoin:miter;stroke-opacity:1"
         d="m 309.85568,353.30002 c -22.64609,-0.23493 -44.2385,22.33073 -45.69846,44.02677 -2.66824,39.65221 12.87687,75.31487 26.71542,157.07932 -3.97743,-1.0081 -8.00845,-1.52764 -11.97406,-1.5954 -18.37069,-0.31388 -36.79972,8.24132 -43.97022,25.59351 -3.9793,9.62969 -2.14019,20.03864 1.96499,28.47786 1.13028,2.32357 2.43679,4.56756 3.86553,6.76039 -3.656,-1.36037 -7.31706,-2.43014 -10.97052,-3.11189 -8.61307,-2.69482 -19.56003,-3.15392 -26.82722,7.35359 -0.001,0.002 -0.004,0.003 -0.005,0.005 -2.0043,2.82341 -3.44002,6.02715 -4.51132,9.35671 -10.31406,28.12286 -4.14111,50.23057 12.85529,63.51224 17.59633,13.75049 24.6107,9.45241 28.89084,45.29862 6.56488,54.98089 71.94881,77.94104 111.28354,78.4693 31.66835,0.4253 19.06638,2.04101 62.06283,4.9927 39.56599,2.71619 77.75586,-18.54664 92.02298,-81.32208 0.0449,-0.19737 0.0849,-0.39109 0.1289,-0.58792 3.57799,-13.45061 4.42729,-26.24861 3.53013,-38.11471 -2.04981,-40.02059 -23.25078,-67.00076 -41.46729,-91.84147 -23.54084,-32.10108 48.26363,-169.85824 48.92609,-208.61093 0.71338,-41.73142 -44.5759,-49.56707 -78.88755,-17.52443 -36.95133,34.50776 -63.48855,213.29455 -63.48857,213.29455 0,0 -4.87551,-193.80925 -38.52112,-229.34458 -8.04116,-8.4928 -17.06343,-12.07548 -25.92495,-12.1674 z"
         id="path1813" />
      <path
         style="fill:#1a1a1a;fill-opacity:1;stroke:none;stroke-width:0.6734094px;stroke-linecap:butt;stroke-linejoin:miter;stroke-opacity:1"
         d="m 309.85568,353.30002 c -22.64609,-0.23493 -44.2385,22.33073 -45.69846,44.02677 -2.66824,39.65221 12.87687,75.31487 26.71542,157.07932 -3.97743,-1.0081 -8.00845,-1.52764 -11.97406,-1.5954 -18.37069,-0.31388 -36.79972,8.24132 -43.97022,25.59351 -3.9793,9.62969 -2.14019,20.03864 1.96499,28.47786 1.13028,2.32357 2.43679,4.56756 3.86553,6.76039 -3.656,-1.36037 -7.31706,-2.43014 -10.97052,-3.11189 -8.61307,-2.69482 -19.56002,-3.15392 -26.82722,7.35359 -0.001,0.002 -0.004,0.003 -0.005,0.005 -2.0043,2.82341 -3.44002,6.02715 -4.51132,9.35671 -10.31406,28.12286 -4.14111,50.23057 12.85529,63.51224 17.59633,13.75049 24.6107,9.45241 28.89084,45.29862 6.56488,54.98089 71.94881,77.94104 111.28354,78.4693 31.66835,0.4253 19.06638,2.04101 62.06283,4.9927 39.56599,2.71619 77.75586,-18.54665 92.02298,-81.32208 0.0449,-0.19737 0.0849,-0.39109 0.1289,-0.58792 3.57799,-13.45061 4.42729,-26.24861 3.53013,-38.11471 -2.04981,-40.02059 -23.25078,-67.00076 -41.46729,-91.84147 -23.54084,-32.10108 48.26363,-169.85824 48.92609,-208.61093 0.71338,-41.73142 -44.5759,-49.56707 -78.88755,-17.52443 -36.95133,34.50776 -63.48855,213.29455 -63.48857,213.29455 0,0 -4.87551,-193.80925 -38.52112,-229.34458 -8.04116,-8.4928 -17.06343,-12.07548 -25.92495,-12.1674 z m 0.32224,12.95656 c 5.3073,0.0751 10.38601,2.00713 16.18287,8.12957 4.47126,4.7224 11.97325,22.41217 16.97465,44.74359 5.00141,22.33141 8.73637,49.51329 11.41771,75.6586 5.36268,52.29061 6.58021,100.34984 6.58021,100.34984 a 12.973885,12.973885 0 0 0 15.78698,12.31734 c -7.17182,2.47548 -12.06567,4.42088 -12.37785,4.54552 -0.01,0.003 -0.0164,0.007 -0.0263,0.0105 -1.70101,0.62081 -3.30027,1.2243 -4.85196,1.82294 a 12.02957,12.02957 0 0 0 -0.27226,-0.61422 c -13.20983,-26.16066 -38.9324,-41.81309 -52.37731,-51.32511 -0.91961,-0.6506 -1.85792,-1.25479 -2.80544,-1.83083 a 12.973885,12.973885 0 0 0 -0.0578,-3.7511 c -14.16747,-85.65019 -29.69693,-121.76413 -27.25079,-158.11573 0.44248,-6.57553 4.2692,-14.77803 10.25765,-21.04536 5.98846,-6.26733 13.74982,-10.30793 20.52847,-10.82059 0.77032,-0.0583 1.53299,-0.0857 2.29117,-0.075 z m 172.39281,8.55308 c 1.86113,0.0133 3.60481,0.18943 5.20183,0.51558 10.22096,2.08738 16.21055,7.33335 15.93429,23.49436 -0.0994,5.81514 -4.18999,21.90501 -10.53781,40.45192 -6.34782,18.54691 -14.65453,40.42284 -22.28038,62.30089 -7.62585,21.87806 -14.59497,43.70004 -18.26098,62.96642 -2.6349,13.8477 -4.42651,26.7262 -1.37838,38.12128 -6.61136,-3.07272 -13.54883,-5.05011 -20.66656,-5.83709 -1.66468,-0.18408 -3.33893,-0.25795 -5.03479,-0.25121 -12.68364,0.0484 -27.2227,4.08367 -39.39182,7.90203 -2.26803,0.71166 -4.38903,1.41175 -6.41318,2.09257 a 12.973885,12.973885 0 0 0 7.39041,-9.84993 c 0,0 6.58225,-44.29085 17.69936,-92.70822 5.55856,-24.20868 12.26345,-49.4201 19.67224,-70.25949 7.40878,-20.83938 16.41968,-37.40796 22.13964,-42.74966 12.39421,-11.57458 25.87606,-16.2612 35.92613,-16.18945 z m -205.211,190.02641 c 0.44386,-0.007 0.88856,-0.006 1.33367,0.001 7.46096,0.12748 15.06188,2.27019 21.57409,6.87746 13.94943,9.86895 37.45803,24.88763 48.58675,46.9269 -2.03079,1.0385 -3.92687,2.11417 -5.68057,3.27761 -5.60589,3.71908 -10.3261,9.21849 -11.66235,15.81066 -0.44596,2.20008 -0.68375,4.87415 -0.0987,9.1318 0.58511,4.25764 2.16786,9.63847 5.71873,15.08726 2.96061,4.54307 7.2227,8.97971 13.08281,12.95787 -0.67174,0.7594 -1.43505,1.39048 -2.30695,1.94131 -4.14166,2.61654 -9.6299,7.13302 -38.87756,-16.40777 -29.24765,-23.5408 -72.61522,-54.13706 -62.98482,-77.44209 4.52567,-10.95186 17.55532,-17.95649 31.31485,-18.16232 z m 148.22768,41.91185 c 1.36997,-0.005 2.66763,0.0556 3.87736,0.1894 19.35579,2.14012 37.65689,14.62305 50.67801,36.73763 13.02118,22.11459 29.91332,60.63755 10.55753,106.29347 -19.35572,45.65592 -39.76744,50.29243 -51.73284,52.43256 -11.96539,2.14011 -45.04593,1.06986 -53.14016,-7.13394 -8.09422,-8.2038 -16.54037,-59.20936 2.46347,-82.394 19.00384,-23.18465 23.35232,-22.56054 23.35232,-22.56054 0,0 46.50553,5.07115 53.53736,-11.97143 1.12357,-2.72312 -1.25989,-4.48663 -8.81087,-0.69445 -7.74479,3.8895 -20.57014,9.18811 -69.48744,0.27094 -48.91723,-8.91717 -45.88495,-35.76015 -45.39727,-38.16601 1.43994,-7.10369 9.14955,-11.77089 26.74567,-18.19126 0,0 36.80728,-14.734 57.35686,-14.81237 z m -204.11803,13.3919 c 23.65188,0.30652 71.44867,36.90448 80.72232,44.72912 11.41371,9.63033 40.30517,57.78104 14.6243,60.63447 -25.68089,2.85343 -63.97394,-19.91423 -94.52064,-39.94686 -20.90309,-13.70832 -21.00623,-35.51009 -12.5725,-59.03117 2.11634,-4.59412 6.28839,-6.4563 11.74652,-6.38556 z m 139.2708,60.56739 c 6.68077,2.98305 14.71273,5.47139 24.3164,7.22205 3.81499,0.69544 7.0582,1.1618 10.4773,1.69931 -3.84933,3.71875 -8.63747,8.89232 -15.11357,16.79315 -12.28977,14.99349 -14.50013,35.63856 -13.68915,53.7215 0.40549,9.04147 1.70239,17.50427 3.54329,24.60312 1.09748,4.23209 2.03089,7.85633 3.68271,11.19149 -4.38455,3.64677 -11.1573,5.25744 -18.66212,5.68189 -1.18484,-0.0227 -2.33189,-0.0468 -3.6472,-0.0644 -17.24047,-0.23153 -41.90049,-5.75873 -61.64459,-17.09433 -19.74408,-11.33561 -34.22445,-27.27428 -36.93097,-49.94147 -0.94647,-7.92662 -2.08044,-14.46641 -3.59722,-19.99842 5.77315,3.22906 11.61418,6.29006 17.44288,9.04237 17.40031,8.21641 34.61355,14.15445 51.05285,12.32786 4.92018,-0.54668 9.79882,-2.4582 13.36429,-5.94362 3.56546,-3.48546 5.37947,-8.08598 5.98045,-12.28841 1.20196,-8.40487 -1.12471,-16.13358 -4.19697,-23.81397 -0.67367,-1.68407 -1.38886,-3.3482 -2.12939,-4.99402 1.28209,0.47782 2.53957,0.88808 3.78003,1.22056 8.70928,2.33433 18.10311,-2.13284 19.56176,-3.05401 1.69917,-1.0735 3.41612,-2.47245 4.89274,-4.14174 a 12.02957,12.02957 0 0 0 1.51648,-2.16885 z"
         id="path2780" />
    </g>
  </g>
</svg>
